# xmcd
#
# Track frame offsets:
#	182
#	14237
#	26312
#	38037
#	51482
#	63812
#	74885
#	85317
#	98865
#	110495
#
# Disc length: 1659 seconds
#
# Revision: 5
# Processed by: cddbd v1.5.2PL0 Copyright (c) Steve Scherf et al.
# Submitted via: audiograbber 1.83.01
#
DISCID=8b06790a
DTITLE=Various Artist - Country Music Classics - Volume 3 - 1965-1970
DYEAR=1990
DGENRE=Oldies
TTITLE0=Glen Campbell - Wichita Lineman
TTITLE1=Tammy Wynette - Stand By Your Man
TTITLE2=Jack Greene - There Goes My Everything
TTITLE3=David Houston - Almost Persuaded
TTITLE4=Merle Haggard - Okie From Muskogee
TTITLE5=Roger Miller - King Of The Road
TTITLE6=Jody Miller - Queen Of The House
TTITLE7=Leapy Lee - Little Arrows
TTITLE8=Leon Ashley - Laura (What's He Got That I Ain't Got)
TTITLE9=Jeannie C. Riley - Harper Valley P.T.A.
EXTD=
EXTT0=Glen Campbell
EXTT1=Tammy Wynette
EXTT2=Jack Greene
EXTT3=David Houston
EXTT4=Merle Haggard
EXTT5=Roger Miller
EXTT6=Jody Miller
EXTT7=Leapy Lee
EXTT8=Leon Ashley
EXTT9=Jeannie C. Riley
PLAYORDER=
